<svg xmlns="http://www.w3.org/2000/svg" viewBox="0 0 320 240" role="img" aria-label="Bản đồ Benin"><path d="M137.935,222L137.553,220.883L143.001,219.445L141.867,215.124L138.477,210.025L137.148,209.083L136.463,206.547L137.291,204.882L136.896,203.759L136.609,200.318L134.943,196.524L138.002,196.363L138.002,184.134L137.999,172.394L137.999,162.369L137.999,154.433L137.412,144.925L137.32,137.937L137.202,128.721L136.096,125.84L131.464,120.956L130.205,118.421L129.982,115.07L128.943,111.612L128.879,105.566L128.806,98.521L128.389,97.393L123.367,94.033L116.259,89.271L110.839,85.639L110.44,85.373L109.899,84.475L110.686,73.735L111.807,72.329L113.534,67.906L114.372,64.333L115.159,64.348L116.249,63.186L117.132,61.483L118.072,61.845L119.652,62.174L120.378,61.571L120.28,60.252L120.802,58.911L122.042,58.312L122.367,57.113L122.376,55.733L123.45,55.372L125.276,55.429L126.77,54.999L127.975,54.29L129.523,51.507L130.393,50.538L130.661,49.849L131.543,49.236L133.978,48.955L135.937,49.17L137.196,50.784L145.601,49.361L149.606,50.192L157.779,43.175L159.618,41.105L162.1,36.145L162.944,34.245L163.712,30.836L162.1,24.525L162.189,23.407L165.56,22.043L169.772,20.989L171.404,20.908L172.478,20.373L174.017,19.01L176.521,18L177.987,18.339L178.898,18.538L187.756,26.874L191.598,31.083L192.634,33.242L194.619,34.799L197.55,35.75L200.224,37.9L202.301,40.938L200.947,43.083L198.879,47.502L198.79,50.958L203.719,58.229L204.286,58.97L205.561,60.109L206.249,61.463L206.829,65.042L207.179,69.079L207.568,71.793L209.945,75.611L210.101,77.149L208.448,82.842L208.056,83.448L207.622,83.611L205.07,83.111L203.971,83.734L202.585,85.668L201.731,87.598L201.686,88.398L203.949,91.986L202.518,97.143L201.055,100.363L198.43,102.198L196.082,102.638L194.441,103.494L193.485,104.63L193.625,108.319L190.165,111.675L188.246,114.022L187.316,115.447L187.705,119.779L186.478,124.153L184.34,127.605L179.548,128.347L175.527,128.771L174.16,137.557L174.217,143.119L173.857,148.797L173.188,151.108L173.462,154.367L173.163,161.724L172.63,167.525L173.338,169.077L173.752,172.486L173.717,176.003L174.749,178.451L175.865,180.591L175.826,181.692L175.234,182.379L174.733,183.282L174.737,191.566L174.937,194.042L174.644,195.623L173.784,196.923L174.122,201.112L174.813,203.78L175.52,205.748L174.839,207.389L174.249,209.559L173.347,215.077L173.296,216.996L159.608,218.347L144.314,220.561Z" fill="#a5b4fc" stroke="#6366f1" stroke-width="1.5" stroke-linejoin="round"/></svg>
