<svg xmlns="http://www.w3.org/2000/svg" viewBox="0 0 320 240" role="img" aria-label="Bản đồ Đức"><path d="M145.036,216.058L142.183,214.243L139.443,212.497L138.537,212.497L134.499,212.845L134.382,212.692L133.68,211.696L133.055,211.381L132.679,211.543L132.428,211.831L131.994,211.783L130.184,210.173L129.443,209.941L128.414,210.154L127.199,211.02L126.669,212.081L126.831,212.692L127.461,212.957L129.11,212.779L129.352,212.955L129.408,213.298L129.227,213.633L127.886,213.908L127.498,214.309L127.106,214.408L126.855,214.47L125.43,214.048L123.306,214.048L121.594,214.796L118.862,215.095L115.108,214.949L113.757,214.394L112.935,214.058L112.344,212.42L112.495,209.989L113.391,206.766L113.641,204.394L113.242,202.881L113.773,200.611L115.233,197.579L116.208,194.374L116.694,190.991L117.402,188.781L118.791,187.23L122.09,182.883L122.357,182.555L122.268,180.381L121.379,180.074L120.078,179.448L116.766,178.674L113.681,178.177L112.28,177.561L111.052,175.913L110.292,175.891L108.804,176.481L106.944,176.879L105.591,176.531L104.745,176.598L104.269,176.903L104.031,176.634L103.691,175.219L102.984,174.849L101.884,174.526L101.201,174.666L100.729,175.368L100.001,175.864L99.332,175.703L97.236,172.433L96.697,171.709L96.559,171.042L96.034,169.822L94.786,168.608L93.542,168.222L92.921,168.359L92.989,166.846L93.478,164.65L93.944,163.503L94.565,162.564L95.223,161.911L95.37,160.73L95.265,159.611L94.504,159.437L92.598,158.61L91.474,157.739L90.636,156.645L89.543,155.138L89.077,153.607L89.053,152.078L89.187,151.394L89.266,150.925L90.148,148.537L93.251,146.395L92.91,144.235L92.865,142.91L92.111,142.041L90.605,141.69L90.207,141.087L90.039,140.498L91.145,139.174L89.81,138.126L89.235,137.04L87.375,135.669L87.178,135.197L88.072,131.19L87.39,130.018L86.541,129.42L85.552,129.126L85.101,128.568L84.943,127.93L85.12,127.535L86.282,127.652L86.639,127.238L89.408,124.87L89.522,124.415L89.136,124.157L88.629,124.019L88.504,123.521L88.521,122.864L90.002,119.439L90.439,117.974L90.536,116.938L90.445,115.914L89.599,114.303L88.771,113.015L88.742,111.989L88.142,111.449L86.434,108.694L86.437,107.627L87.403,106.797L88.75,106.267L89.198,105.831L90.007,105.556L92.147,106.353L93.107,107.044L93.377,106.902L94.243,106.149L95.761,106.267L99.436,104.756L99.983,104.028L100.396,103.254L100.43,102.913L99.007,101.422L98.963,100.87L99.152,100.248L99.554,99.756L100.396,99.421L101.292,98.765L103.295,96.902L103.989,95.283L104.202,93.528L104.244,92.22L103.698,91.179L103.146,90.504L102.39,90.607L100.923,90.553L99.551,89.968L98.799,89.021L98.613,88.187L98.954,87.662L99.058,87.017L98.839,86.368L98.927,85.822L99.544,85.384L103.884,85.399L104.208,84.918L104.501,82.391L105.587,78.534L106.609,76.381L106.781,75.474L106.765,70.352L106.901,67.748L106.16,66.523L104.541,65.181L104.885,62.381L105.423,60.193L107.051,57.498L108.343,56.757L113.98,56.316L120.209,56.497L122.796,60.568L121.835,62.655L123.348,63.625L124.076,63.27L124.63,61.456L125,59.444L125.53,58.835L127.455,60.339L128.132,61.369L128.174,64.675L128.883,60.196L128.355,57.05L128.718,53.993L129.491,52.401L130.202,51.386L134.771,52.478L139.816,51.915L141.724,53.095L146.041,58.992L147.48,59.955L149.296,60.258L146.793,59L141.561,51.827L139.994,50.935L137.588,50.665L136.088,49.961L135.142,48.872L134.866,47.897L134.917,40.611L134.014,39.522L132.847,39.144L132.121,39.644L130.627,39.651L130.314,37.994L130.679,36.764L133.68,35.922L135.658,34.794L135.746,32.797L134.496,31.224L132.999,28.335L131.24,25.612L131.043,22.436L131.05,22.439L134.107,22.502L134.856,22.621L139.493,24.109L140.626,25.153L142.052,25.201L144.621,24.23L146.54,23.804L147.284,24.403L148.33,24.654L148.571,24.654L148.672,25.176L151.071,25.931L152.08,27.134L153.2,28.96L153.309,31.582L151.875,33.465L150.684,34.656L155.188,34.205L155.636,35.284L156.318,36.446L158.744,35.618L164.826,39.053L168.505,37.382L169.446,37.285L170.281,40.057L169.367,42.843L166.125,45.808L166.843,47.632L167.879,48.036L170.936,47.649L175.776,49.448L176.784,48.888L180.709,44.736L182.277,43.842L187.441,43.203L188.38,41.59L190.472,39.965L191.82,38.189L195.047,34.799L198.385,35.41L200.335,36.06L202.475,36.387L204.423,39.995L209.349,43.971L213.876,43.625L215.483,47.374L216.192,51.987L217.583,53.431L218.805,54.372L222.493,55.358L222.639,55.42L222.757,56.043L222.983,58.322L223.292,60.208L225.19,67.715L225.153,69.543L225.131,70.028L224.436,72.583L223.201,74.732L221.57,75.942L220.672,77.288L220.504,78.773L222.554,81.369L226.821,85.073L228.548,88.232L227.733,90.853L227.485,92.772L227.802,93.993L228.486,94.972L229.539,95.712L229.957,96.85L229.744,98.384L229.944,99.448L230.73,100.205L230.658,100.499L230.275,101.564L229.753,103.503L229.457,104.916L228.257,106.84L228.622,108.472L229.563,110.393L230.277,111.357L230.502,112.27L230.048,114.439L230.273,114.994L233.244,116.588L233.729,117.324L234.017,118.853L235.057,122.115L234.193,126.236L233.433,128.488L231.741,132.054L231.661,132.382L231.466,132.815L230.958,133.438L230.251,133.532L229.183,133.067L228.452,132.471L228.62,130.934L228.151,130.833L227.568,129.888L227.34,128.873L226.711,128.458L224.415,128.031L223.636,127.731L223.037,127.947L222.589,128.667L222.876,129.317L223.303,129.949L224.575,130.951L224.444,131.35L221.702,132.324L219.977,133.323L218.37,133.884L216.733,134.917L213.501,136.076L211.131,136.383L210.636,136.689L209.751,138.651L209.154,139.06L208.581,138.847L208.146,138.527L207.595,138.793L207.022,139.441L206.423,139.697L205.902,139.688L204.975,141.397L202.275,141.915L201.958,142.799L201.462,143.825L201.066,144.076L199.847,143.67L198.161,143.445L197.195,144.007L196.033,144.317L194.615,144.411L193.035,145.532L191.493,147.496L190.626,149.227L190.162,149.848L189.405,148.224L188.481,147.108L187.827,146.529L187.242,146.528L187.089,146.765L187.087,147.617L187.711,149.029L188.484,149.992L188.608,150.703L189.022,151.995L190.147,153.404L191.913,154.52L193.116,155.617L194.008,157.137L194.016,157.604L193.771,158.224L193.35,158.808L192.995,159.569L192.017,161.104L192.307,161.775L193.107,162.621L193.816,163.636L194.725,165.276L195.975,168.145L196.78,169.323L197.873,170.539L198.947,171.466L200.641,171.438L202.395,173.206L204.309,175.759L205.74,176.928L206.739,177.284L207.563,178.201L208.295,179.519L208.581,180.281L209.229,180.831L210.982,180.728L213.232,182.797L214.625,184.31L215.359,185.53L215.166,186.013L215.076,187.53L215.098,189.137L214.878,189.985L213.871,191.101L213.351,191.339L213.072,191.58L209.982,190.124L209.737,190.372L209.543,190.552L208.715,194.766L208.146,195.574L207.297,196.317L205.534,197.04L204.308,197.335L203.352,197.701L200.325,199.457L198.962,200.511L198.078,201.834L198.073,202.595L199.546,204.829L201.244,207.133L201.255,209.157L200.503,210.668L200.329,211.251L200.828,211.471L201.769,211.554L202.557,211.815L202.893,212.876L202.792,214.724L202.523,216.451L202.241,217.177L201.483,217.235L200.021,216.489L198.882,215.621L198.446,215.088L198.419,214.449L198.666,214.046L198.259,213.259L196.857,212.53L195.356,212.848L194.246,213.338L193.531,213.31L192.758,212.609L191.569,212.072L190.015,211.717L189.046,211.339L188.843,211.563L188.957,213.081L188.659,213.742L180.975,214.618L178.633,215.438L176.928,216.497L175.667,216.957L175.358,217.609L174.11,218.466L172.7,218.739L172.36,218.459L171.456,218.854L169.915,219.236L168.913,219.114L168.442,218.422L167.488,217.362L167.106,216.626L167.146,216.155L164.991,216.06L163.632,215.499L160.75,215.631L160.039,215.394L159.89,215.649L159.457,218.657L158.887,219.89L157.963,221.163L156.78,221.871L155.836,222L155.881,221.072L156.119,219.954L155.439,219.692L154.418,219.563L153.923,219.23L154.053,218.378L153.818,217.88L153.395,217.286L152.371,216.516L150.201,215.376L148.722,214.811L148.168,215.413L147.11,216.017L145.444,215.819ZM213.629,37.184L214.039,39.076L213.599,40.039L211.757,38.437L209.906,38.459L208.8,40.926L207.978,41.03L205.121,38.79L204.663,37.696L204.568,36.784L204.977,33.625L204.901,32.63L205.799,31.541L205.938,29.965L207.526,28.302L208.935,28.24L209.383,29.649L210.057,30.618L212.43,31.704L212.784,32.196L212.999,32.878L211.894,34.212L211.52,34.896L211.87,35.99ZM221.861,49.289L221.645,50.161L221.898,51.504L221.217,51.403L219.188,51.717L217.179,51.273L216.792,49.606L217.112,47.999L216.305,46.893L215.563,46.243L215.452,45.314L215.572,44.352L219.033,46.941ZM173.862,36.192L171.346,36.247L170.385,35.12L169.418,34.834L169.939,33.442L170.619,32.936L173.055,33.843L173.82,35.617ZM125.101,25.751L124.723,26.316L124.904,22.297L126.698,18L127.457,18.096L126.68,19.258L126.456,20.072L126.141,21.695L126.283,22.538L130.376,22.769L129.901,23.52L125.75,24.026ZM129.693,27.86L129.054,28.555L127.495,28.474L126.62,27.82L126.903,27.123L127.73,26.59L128.415,26.509L129.456,26.837Z" fill="#a5b4fc" stroke="#6366f1" stroke-width="1.5" stroke-linejoin="round"/></svg>
