<svg xmlns="http://www.w3.org/2000/svg" viewBox="0 0 320 240" role="img" aria-label="Bản đồ Pháp"><path d="M190.077,51.008L190.014,51.491L190.06,51.632L190.147,51.73L190.187,51.838L190.261,53.118L190.247,53.22L189.951,53.731L189.885,53.881L189.87,54.513L189.821,54.682L189.716,54.849L189.529,55.388L189.367,55.63L188.924,55.335L188.664,55.207L188.536,55.07L188.452,54.974L188.506,54.848L188.625,54.715L188.644,54.612L188.364,54.494L188.236,54.415L188.238,54.277L188.335,54.062L188.29,53.885L188.129,53.894L188.004,53.866L187.988,53.774L188.08,53.656L188.199,53.501L188.195,53.331L188.052,53.257L187.922,53.118L187.87,52.929L187.971,52.8L188.134,52.717L188.014,52.523L187.933,52.519L187.868,52.476L187.921,52.386L188.048,52.251L188.224,51.848L188.47,51.657L188.905,51.534L189.023,51.481L189.131,51.338L189.25,51.247L189.395,51.259L189.529,51.314L189.612,51.372L189.674,51.311L189.734,51.135L189.697,50.98L189.716,50.552L189.794,50.309L189.92,50.296L190.036,50.429L190.03,50.548L190.073,50.827ZM185.575,34.591L185.283,34.753L185.217,34.895L185.103,35.083L184.917,35.162L184.73,35.188L184.579,35.163L184.493,35.088L184.497,35.018L184.417,34.959L184.218,34.961L184.012,35.09L183.848,35.3L183.899,35.418L184.05,35.449L184.09,35.496L184.09,35.556L184.037,35.629L183.973,35.753L183.656,36.123L183.336,36.495L183.284,36.607L183.183,36.686L182.776,36.884L182.733,36.963L182.71,37.294L182.665,37.565L182.363,37.82L182.062,38.073L181.987,38.228L181.933,38.407L181.838,38.608L181.82,38.715L181.972,38.888L181.954,39.032L181.906,39.235L181.762,39.379L181.602,39.461L181.605,39.682L181.69,39.713L181.883,39.697L182.156,39.536L182.333,39.33L182.229,39.134L182.216,39.095L182.241,39.049L182.451,38.835L182.71,38.707L183.07,38.683L183.505,38.758L183.548,38.79L183.527,38.921L183.568,39.114L183.646,39.25L183.538,39.634L183.619,39.754L183.746,39.898L183.841,40.029L183.977,40.149L184.098,40.352L184.139,40.466L183.946,40.666L183.617,40.852L183.58,40.971L183.584,41.107L183.621,41.214L183.802,41.351L183.998,41.661L184.122,41.937L184.393,42.201L184.459,42.28L184.442,42.346L184.371,42.458L184.278,42.832L184.167,42.892L184.043,42.916L183.708,43.19L183.558,43.157L183.346,43.16L183.19,43.25L183.207,43.42L183.344,43.576L183.424,43.745L183.456,43.922L183.608,44.052L183.821,44.13L183.943,44.135L184.023,44.182L184.071,44.242L184.163,44.618L184.108,44.712L183.993,44.753L183.924,44.907L183.787,45.134L183.709,45.317L183.796,45.477L183.832,45.596L183.786,45.718L183.848,45.908L184.01,46.096L184.449,46.36L184.858,46.575L184.984,46.61L185.536,46.472L185.627,46.484L185.694,46.649L185.723,46.759L185.661,46.925L185.512,47.154L185.35,47.337L185.252,47.491L185.273,47.632L185.279,47.818L185.148,47.874L185.143,47.837L185.089,47.806L185.042,47.824L185.006,47.865L185.001,47.937L184.72,48.056L184.527,48.179L183.762,48.915L183.404,49.13L183.334,49.259L183.261,49.501L183.051,49.709L182.867,49.807L182.412,49.908L181.954,50.128L181.748,50.033L181.214,50.043L180.881,49.779L180.242,49.611L180.033,49.225L179.742,49.2L179.551,49.211L179.437,49.153L179.407,49.021L179.404,48.894L179.202,48.952L179.047,48.952L178.955,49.003L178.882,49.062L178.796,49.025L178.746,49.037L178.751,49.112L178.565,49.131L178.364,49.085L177.835,48.885L177.754,48.855L177.387,48.777L177.239,48.697L177.119,48.5L177.027,48.437L176.973,48.399L176.63,48.499L176.512,48.655L176.326,48.837L175.056,49.728L174.825,50.1L174.556,50.647L174.535,50.901L174.651,51.713L174.909,52.138L174.942,52.236L174.799,52.236L174.559,52.183L174.359,52.118L174.169,52.155L173.986,52.242L173.826,52.295L173.712,52.31L173.635,52.361L173.598,52.462L173.59,52.532L173.388,52.515L172.921,52.37L172.501,52.269L172.255,52.383L172.096,52.49L171.985,52.474L171.9,52.362L171.843,52.252L171.679,52.151L171.307,52L171.327,51.927L171.39,51.825L171.388,51.762L171.317,51.668L170.975,51.568L170.813,51.543L170.711,51.612L170.637,51.696L170.446,51.385L170.311,51.322L170.106,51.312L169.871,51.217L169.627,51.095L169.034,50.901L168.871,50.877L168.806,50.908L168.762,51.024L168.739,51.353L168.714,51.389L168.438,51.4L168.099,51.354L167.944,51.377L167.805,51.378L167.675,51.291L167.089,51.39L166.992,51.342L166.85,51.194L166.693,51.074L166.57,51.013L166.466,50.943L166.371,50.931L166.227,50.999L166.027,51.028L165.861,51.019L165.773,51.029L165.402,50.665L165.347,50.565L165.162,50.538L164.934,50.533L164.351,50.297L164.085,50.17L164.046,50.094L164.05,50.033L164.004,50.046L163.923,50.155L163.88,50.243L163.823,50.259L163.739,50.245L163.662,50.196L163.614,50.132L163.665,50.02L163.754,49.874L163.791,49.715L163.783,49.573L163.635,49.481L163.419,49.443L163.26,49.432L163.053,49.351L162.956,49.292L162.86,49.133L162.857,49.018L163.25,48.916L163.604,48.497L163.939,46.97L164.182,45.15L164.362,44.805L164.588,44.709L164.405,44.457L164.29,44.585L164.242,44.72L164.182,44.788L164.318,43.101L164.414,42.48L164.579,41.827L164.915,42.086L165.194,42.349L165.338,42.577L165.52,43.334L165.658,43.492L165.864,43.651L165.783,43.478L165.641,43.345L165.419,42.336L165.279,42.049L165.062,41.807L164.364,41.297L164.301,41.199L164.267,41.003L164.498,41.012L164.698,41.106L164.674,40.997L164.615,40.883L164.522,40.468L164.445,39.495L164.456,39.328L164.421,39.123L164.198,39.077L164.019,39.069L163.827,38.988L162.875,38.411L162.55,37.814L162.217,37.372L162.137,37.178L162.142,36.982L162.314,36.568L162.162,36.306L162.013,36.253L161.884,36.123L162.001,35.907L162.099,35.768L162.293,35.73L162.549,35.776L162.791,35.902L162.982,35.935L162.419,35.598L161.508,35.712L161.311,35.668L161.145,35.593L161.08,35.345L161.21,35.234L161.327,35.027L161.195,34.881L161.022,34.826L160.752,34.829L160.5,34.873L160.436,34.79L160.59,34.559L160.459,34.474L160.285,34.513L160.032,34.561L159.791,34.489L159.562,34.226L159.411,34.228L159.307,34.26L159.152,34.159L158.99,34.134L158.874,34.167L158.72,34.016L157.771,33.713L157.361,33.676L156.985,33.813L156.778,33.765L156.626,33.569L156.498,33.239L155.893,32.985L156.012,32.818L156.294,32.778L156.619,32.662L156.736,32.513L156.482,32.339L156.295,32.297L156.217,32.234L156.138,32.078L156.25,32.007L156.329,32.045L156.558,32.067L156.949,32.029L156.803,31.871L156.652,31.836L156.582,31.796L156.264,31.779L156.12,31.833L155.795,31.813L155.724,31.642L155.691,31.496L155.791,31.169L156.249,30.877L157.389,30.557L157.88,30.604L158.22,30.546L158.628,30.344L158.807,30.171L159.387,30.069L159.938,30.252L160.446,30.946L160.689,31.18L161.283,30.773L162.168,30.785L162.351,31.015L162.425,30.822L162.588,30.595L162.717,30.698L162.783,30.838L163.718,30.799L163.865,30.758L163.614,30.593L163.409,30.198L163.367,28.737L163.108,28.328L162.81,27.671L162.674,27.28L162.661,27.145L162.707,26.95L163.072,26.96L163.354,27.01L163.891,26.862L164.15,26.963L164.135,27.269L164.214,27.653L164.304,27.839L164.44,28.051L164.873,28.031L165.34,28.155L165.931,28.174L166.794,28.388L167.162,28.264L167.517,28L168.195,27.826L168.249,27.734L167.859,27.771L167.501,27.603L167.453,27.42L167.494,27.256L167.639,26.878L168.676,26.28L169.42,26.103L170.196,25.773L170.586,25.433L170.844,24.994L170.927,24.897L171.034,24.816L170.934,24.659L171.002,22.968L171.075,22.662L171.226,22.411L171.456,22.217L171.806,22.006L173.093,21.715L173.284,21.597L173.311,21.78L173.405,22.014L173.469,22.142L173.416,22.309L173.458,22.446L173.633,22.692L173.85,22.924L174.045,23.073L174.099,23.056L174.243,23.014L174.487,22.862L174.689,22.814L174.805,22.931L174.871,22.997L174.999,23.259L175.035,23.532L175.091,23.759L175.195,23.85L175.583,23.88L175.869,23.964L175.945,24.04L176.042,24.542L176.096,24.613L176.167,24.554L176.237,24.471L176.335,24.458L176.503,24.49L176.724,24.5L176.952,24.555L177.267,24.838L177.255,24.931L177.194,25.095L177.172,25.225L177.226,25.278L177.31,25.412L177.29,25.568L177.209,25.676L177.176,25.766L177.176,25.824L177.206,25.873L177.271,25.915L177.736,25.973L178.162,25.915L178.43,25.757L178.476,25.59L178.552,25.401L178.712,25.243L178.822,25.19L178.923,25.255L178.753,25.918L178.877,26.087L178.896,26.339L178.94,26.56L179.092,26.556L179.277,26.597L179.407,26.678L179.56,26.809L179.779,26.93L179.933,26.972L179.989,27.072L180.113,27.188L180.309,27.432L180.485,27.594L180.569,27.593L180.733,27.529L180.975,27.489L181.167,27.492L181.248,27.616L181.436,27.673L181.503,27.718L181.576,27.803L181.702,27.837L181.853,27.803L181.964,27.689L182.111,27.638L182.259,27.655L182.344,27.718L182.506,27.81L182.597,27.79L182.78,27.847L182.964,28.026L183.042,28.205L183.062,28.304L183.141,28.41L183.45,28.892L183.548,28.916L183.656,28.843L183.725,28.739L183.826,28.718L183.988,28.766L184.092,28.821L184.142,29.029L184.177,29.069L184.247,29.024L184.372,29.014L184.571,29.065L184.845,29.006L185.064,28.92L185.176,28.923L185.357,29.166L185.564,29.256L186.018,29.329L186.506,29.443L186.698,29.536L186.828,29.581L186.842,29.901L186.802,29.949L186.316,30.59L186.112,30.818L186.007,31.144L185.936,31.642L185.792,32.114L185.577,32.561L185.499,32.895L185.558,33.118L185.521,33.468L185.389,33.942L185.367,34.3L185.454,34.542ZM164.344,40.542L164.259,40.845L164.098,40.566L163.884,40.321L163.835,40.094L163.836,40.033L164.086,40.199ZM276.267,197.173L276.115,197.194L276.043,197.128L275.999,196.972L276.045,196.822L276.057,196.701L275.934,196.491L276.054,196.372L276.157,196.511L276.215,196.52L276.37,196.617L276.325,196.796L276.335,196.854L276.265,197.033ZM301.899,218.326L301.558,218.403L301.321,218.375L300.85,218.155L300.724,218.01L300.536,217.598L300.578,217.453L300.726,217.199L301.062,217.098L301.414,217.136L301.572,217.205L301.759,217.503L302,217.806L301.96,218.166ZM20.337,130.199L20.312,130.341L20.25,130.369L20.16,130.251L19.763,130.267L19.703,130.161L19.699,130.111L19.89,129.931L19.665,129.883L19.576,129.805L19.387,129.426L19.402,129.315L19.481,129.257L19.61,129.249L19.852,129.371L20.032,129.546L20.093,129.549L20.114,129.598L20.077,129.721L20.185,129.825L20.231,129.902ZM19.127,125.853L18.843,125.881L18.657,125.859L18.613,125.679L18.709,125.526L18.64,125.341L18.684,125.23L18.78,125.158L18.936,125.254L18.961,125.392L19.059,125.519L19.5,125.788ZM18.494,126.414L18.298,126.527L18.202,126.492L18.084,126.276L18,125.675L18.065,125.576L18.111,125.539L18.368,125.612L18.476,125.697L18.584,125.751L18.529,125.861L18.556,126.312ZM19.361,126.708L19.226,126.718L19.167,126.696L19.148,126.545L19.253,126.441L19.314,126.416L19.404,126.532L19.426,126.629ZM35.329,159.953L35.357,159.931L35.445,159.915L35.523,159.913L35.645,159.737L35.847,159.628L36.197,159.018L36.345,158.766L36.363,158.629L36.405,158.342L36.327,157.992L36.363,157.894L36.665,157.472L36.794,157.241L36.803,157.043L36.84,156.9L36.803,156.826L36.735,156.804L36.619,156.619L36.545,156.465L36.34,156.308L36.2,156.147L35.97,155.776L35.991,155.568L35.926,155.494L35.855,155.417L35.861,155.323L35.813,155.09L35.753,154.871L35.732,154.733L35.788,154.496L35.754,154.232L35.68,154.093L35.659,153.882L35.674,153.692L35.738,153.585L35.725,153.453L36.016,153.031L36.237,152.787L36.441,152.615L36.611,152.487L36.842,151.846L37.01,151.621L37.186,151.589L38.134,152.119L38.579,152.168L39.475,152.455L39.799,152.823L40.55,153.434L40.944,153.626L40.948,153.786L40.862,154.041L41.115,153.818L41.505,154.17L41.616,154.343L41.738,154.662L41.696,154.867L41.642,154.972L41.639,155.054L41.755,154.941L41.82,154.851L41.84,154.638L41.935,154.373L42.062,154.368L42.163,154.526L42.373,155.213L42.453,155.353L42.483,155.571L42.471,155.669L42.485,155.759L42.41,155.811L42.208,155.925L42.116,156.077L42.062,156.223L41.937,156.322L41.817,156.447L41.78,156.548L41.668,156.628L41.647,156.762L41.365,157.232L41.253,157.444L41.092,157.669L40.991,157.753L40.854,157.887L40.785,158.041L40.785,158.201L40.689,158.393L40.636,158.559L40.545,158.654L40.307,159.178L40.295,159.358L40.238,159.465L40.069,159.714L39.954,159.864L39.754,159.976L39.544,160.098L39.465,160.232L39.316,160.299L39.208,160.304L39.033,160.255L38.797,160.232L38.677,160.248L38.623,160.182L38.542,160.029L38.424,159.922L38.348,159.959L38.189,160.068L38.003,160.131L37.87,160.11L37.581,160.035L37.458,159.997L37.42,159.933L37.378,159.885L37.314,159.907L37.229,159.987L37.115,160.07L36.946,160.181L36.6,160.379L36.503,160.45L36.413,160.412L36.267,160.372L36.11,160.37L35.772,160.241L35.574,160.15L35.488,160.035L35.388,159.985Z" fill="#a5b4fc" stroke="#6366f1" stroke-width="1.5" stroke-linejoin="round"/></svg>
